<?xml version="1.0" encoding="UTF-8"?>
<svg width="60px" height="38px" viewBox="0 0 60 38" version="1.1" xmlns="http://www.w3.org/2000/svg" xmlns:xlink="http://www.w3.org/1999/xlink">
    <!-- Generator: Sketch 48.1 (47250) - http://www.bohemiancoding.com/sketch -->
    <title>Group 11</title>
    <desc>Created with Sketch.</desc>
    <defs></defs>
    <g id="Home-v5.2" stroke="none" stroke-width="1" fill="none" fill-rule="evenodd" transform="translate(-55.000000, -7.000000)">
        <g id="Group-11" transform="translate(55.000000, 7.000000)">
            <g id="Group-6-Copy-2">
                <g id="Page-1">
                    <path d="M9.71423077,11.9133931 L14.6780769,14.3200598 C14.6106923,14.9669333 14.4560769,15.6133701 14.2765385,16.267669 L8.53684615,13.4849333 C8.94161538,12.9398299 9.32792308,12.4270483 9.71423077,11.9133931 M3.70176923,21.9746575 L9.44053846,24.7573931 C9.03669231,25.3024966 8.64992308,25.8161517 8.25484615,26.3446575 L3.29192308,23.9379908 C3.36761538,23.2749563 3.50469231,22.6202207 3.70176923,21.9746575 M6.26007692,16.7271632 L12.723,19.8601977 C12.3966923,20.4223356 12.0791538,20.969623 11.7186923,21.5147264 L5.25530769,18.381692 C5.55530769,17.8269793 5.89961538,17.2727034 6.26007692,16.7271632" id="Fill-1" fill="#F3B51A"></path>
                    <g id="Group-5" transform="translate(0.000000, 0.242283)" fill="#7EC241">
                        <path d="M3.51996923,29.1824713 C3.66581538,29.3554368 3.83658462,29.5214138 4.00827692,29.6865172 C-4.28649231,17.0351379 22.1882769,4.90745977 8.85673846,0.194586207 C11.4695077,7.06341379 -7.61741538,17.5618966 3.51996923,29.1824713" id="Fill-3"></path>
                    </g>
                    <path d="M14.4589846,8.81752874 C14.2960615,8.63582759 14.1243692,8.47028736 13.9614462,8.32877011 C22.2645231,20.9639885 -4.20932308,33.0921034 9.12221538,37.8054138 C6.50898462,30.9365862 25.5788308,20.4298046 14.4589846,8.81752874" id="Fill-6" fill="#3897D3"></path>
                </g>
            </g>
            <path d="M25,29.7318436 L28.7342386,29.7318436 L28.7342386,6.26815642 L25,6.26815642 L25,29.7318436 Z M39.1731329,20.0111732 L40.8705141,20.0111732 L40.8705141,24.3351955 C40.8705141,26.0111732 40.1236663,26.6145251 38.9354995,26.6145251 C37.7473327,26.6145251 37.000485,26.0111732 37.000485,24.3351955 L37.000485,11.6648045 C37.000485,9.98882682 37.7473327,9.35195531 38.9354995,9.35195531 C40.1236663,9.35195531 40.8705141,9.98882682 40.8705141,11.6648045 L40.8705141,14.1787709 L44.4010669,14.1787709 L44.4010669,11.8994413 C44.4010669,8.1452514 42.5,6 38.8336566,6 C35.1673133,6 33.2662464,8.1452514 33.2662464,11.8994413 L33.2662464,24.1005587 C33.2662464,27.8547486 35.1673133,30 38.8336566,30 C42.5,30 44.4010669,27.8547486 44.4010669,24.1005587 L44.4010669,16.6592179 L39.1731329,16.6592179 L39.1731329,20.0111732 Z M54.4325897,6.26815642 C58.1668283,6.26815642 60,8.31284916 60,12.0670391 L60,15.1173184 C60,18.8715084 58.1668283,20.9162011 54.4325897,20.9162011 L52.6673133,20.9162011 L52.6673133,29.7318436 L48.9330747,29.7318436 L48.9330747,6.26815642 L54.4325897,6.26815642 Z M54.4325897,9.62011173 L52.6673133,9.62011173 L52.6673133,17.5642458 L54.4325897,17.5642458 C55.6207565,17.5642458 56.2657614,17.027933 56.2657614,15.3519553 L56.2657614,11.8324022 C56.2657614,10.1564246 55.6207565,9.62011173 54.4325897,9.62011173 Z" id="IGP-Copy" fill="#FFFFFF"></path>
        </g>
    </g>
</svg>